<svg id="Icon-Warning" xmlns="http://www.w3.org/2000/svg" width="32" height="27.917" viewBox="0 0 32 27.917">
  <g id="Group_914" data-name="Group 914">
    <g id="Group_908" data-name="Group 908">
      <g id="Group_891" data-name="Group 891">
        <g id="Group_892" data-name="Group 892">
          <g id="_Path_" data-name="&lt;Path&gt;">
            <path id="Path_571" data-name="Path 571" d="M33.885,31.2H4.62a1.394,1.394,0,0,1-1.189-.668,1.374,1.374,0,0,1,0-1.354L18.064,3.911a1.437,1.437,0,0,1,2.378,0L35.074,29.177a1.374,1.374,0,0,1,0,1.354A1.394,1.394,0,0,1,33.885,31.2ZM6.979,28.491H31.526L19.253,7.3Z" transform="translate(-3.253 -3.281)" fill="#2c1f00"/>
          </g>
        </g>
      </g>
    </g>
  </g>
  <path id="Path_744" data-name="Path 744" d="M.45,12.2a1.7,1.7,0,1,1,.5,1.2A1.7,1.7,0,0,1,.45,12.2ZM.616,2A1.533,1.533,0,1,1,3.664,2L3.072,7.955a.936.936,0,0,1-1.863,0Z" transform="translate(13.856 9.494)" fill="#2c1f00"/>
</svg>
